# Blender v2.69 (sub 3) OBJ File: 'deerFrontLegs.blend'
# www.blender.org
mtllib deerFrontLegs.mtl
o Deer.001
v -0.228439 -0.216541 0.571907
v -0.108834 -0.279852 0.674831
v -0.092696 -0.301221 0.798480
v -0.087658 -0.231982 1.023784
v -0.185210 -0.123715 1.101904
v -0.302758 0.018783 1.088340
v -0.384830 0.076590 0.961546
v -0.422108 0.150263 0.750346
v -0.429231 0.042880 0.570767
v -0.370535 -0.052169 0.483590
v -0.276181 -1.477252 0.730626
v -0.272210 -1.469579 0.706210
v -0.287166 -1.292082 0.723979
v -0.214101 -1.572422 0.887260
v -0.281229 -1.605338 1.018239
v -0.231222 -1.570787 0.949367
v -0.351446 -1.572526 0.887792
v -0.310455 -1.564843 0.955703
v -0.284694 -1.605248 0.823279
v -0.326976 -1.574769 0.822055
v -0.225941 -1.605258 0.858501
v -0.239883 -1.543427 0.799367
v -0.326956 -1.474749 0.793658
v -0.318390 -1.294611 0.772071
v -0.294404 -1.475986 0.842031
v -0.289477 -1.291382 0.821114
v -0.233568 -1.475214 0.814163
v -0.234994 -1.293549 0.733192
v -0.229599 -1.293471 0.791683
v -0.223001 -0.946476 0.730872
v -0.214579 -0.946528 0.802332
v -0.319823 -0.946863 0.778716
v -0.282517 -0.946736 0.839000
v -0.280358 -0.946716 0.722633
v -0.292292 -0.837253 0.890246
v -0.346486 -0.822050 0.781115
v -0.281772 -1.500697 0.691560
v -0.278731 -1.502466 0.714014
v -0.301266 -0.822867 0.673543
v -0.185129 -0.821286 0.695941
v -0.292835 -0.700817 0.678124
v -0.191646 -0.696351 0.700211
v -0.171396 -0.534646 0.701288
v -0.344650 -0.579894 0.780972
v -0.280028 -0.507378 0.663878
v -0.157736 -0.378104 0.694102
v -0.315690 -0.596282 0.876099
v -0.239542 -0.324657 0.632380
v -0.347377 -0.299776 0.659450
v -0.356711 -0.150560 0.620915
v -0.383142 -0.268107 0.773760
v -0.397333 -0.085353 0.771159
v -0.353480 -0.143515 0.931143
v -0.341295 -0.300366 0.908897
v -0.288545 -0.160339 0.995870
v -0.234879 -0.328951 0.949355
v -0.207315 -0.254525 0.972111
v -0.244572 -0.613154 0.904389
v -0.128305 -0.395638 0.857264
v -0.180147 -0.641892 0.821413
v -0.166206 -0.830276 0.831457
vt 0.647653 0.933361
vt 0.605565 0.893027
vt 0.593819 0.855147
vt 0.642761 0.808970
vt 0.684626 0.790798
vt 0.712215 0.798959
vt 0.753635 0.832847
vt 0.752456 0.869498
vt 0.734616 0.908295
vt 0.699986 0.921007
vt 0.633328 0.571760
vt 0.634784 0.587872
vt 0.648944 0.634272
vt 0.058592 0.571280
vt 0.071296 0.562976
vt 0.062016 0.559552
vt 0.084480 0.571280
vt 0.078608 0.559552
vt 0.071296 0.588848
vt 0.083008 0.582512
vt 0.061040 0.582512
vt 0.630384 0.542960
vt 0.648464 0.531232
vt 0.632336 0.518544
vt 0.659696 0.541008
vt 0.665552 0.573232
vt 0.679216 0.533184
vt 0.664576 0.630848
vt 0.688016 0.570304
vt 0.699728 0.524896
vt 0.683616 0.630848
vt 0.719744 0.580064
vt 0.724624 0.533184
vt 0.715360 0.508768
vt 0.731952 0.549792
vt 0.738304 0.569808
vt 0.744160 0.552240
vt 0.732928 0.592272
vt 0.726592 0.637200
vt 0.713408 0.634752
vt 0.735376 0.731920
vt 0.717312 0.736816
vt 0.663104 0.737792
vt 0.686544 0.739248
vt 0.643088 0.735840
vt 0.691424 0.778800
vt 0.660672 0.775872
vt 0.631360 0.636704
vt 0.635280 0.579584
vt 0.634304 0.575664
vt 0.617696 0.588848
vt 0.626976 0.732896
vt 0.631360 0.771968
vt 0.604016 0.764640
vt 0.622576 0.806144
vt 0.592784 0.798816
vt 0.574720 0.842288
vt 0.652368 0.849120
vt 0.605488 0.863760
vt 0.549824 0.880368
vt 0.685072 0.847648
vt 0.569840 0.911136
vt 0.528832 0.905264
vt 0.553232 0.937008
vt 0.601584 0.930176
vt 0.588880 0.967776
vt 0.640160 0.941408
vt 0.632336 0.980960
vt 0.689968 0.994144
vt 0.688992 0.940912
vt 0.715360 0.970704
vt 0.722672 0.931152
vt 0.729520 0.958976
vt 0.763696 0.949216
vt 0.706080 0.841792
vt 0.769552 0.904288
vt 0.792016 0.920400
vt 0.739776 0.834960
vt 0.723168 0.774896
vt 0.751984 0.764160
vt 0.759792 0.796384
vt 0.782736 0.840320
vt 0.806176 0.879392
vt 0.826192 0.904784
vt 0.628928 0.089824
vt 0.597184 0.165008
vt 0.648464 0.141568
vt 0.795440 0.096656
vt 0.770048 0.118144
vt 0.802272 0.149872
vt 0.759296 0.150368
vt 0.782736 0.202608
vt 0.624528 0.197248
vt 0.690944 0.152320
vt 0.675312 0.230928
vt 0.738800 0.216288
vt 0.740752 0.158672
vn 0.385357 -0.919980 0.071322
vn 0.520066 -0.722770 0.455061
vn 0.135807 -0.219092 0.966186
vn -0.414838 -0.023652 0.909574
vn -0.875423 -0.041993 0.481491
vn -0.988342 -0.042573 0.145970
vn -0.796258 0.094607 -0.597491
vn -0.441511 -0.075167 -0.894070
vn 0.050356 -0.591357 -0.804804
vn 0.462966 -0.818781 -0.339457
vn -0.039625 0.403872 0.913957
vn -0.039085 0.718586 0.694339
vn 0.426221 -0.010102 0.904538
vn -0.943205 0.313578 -0.109622
vn 0.004791 0.310343 -0.950591
vn -0.784143 -0.179968 -0.593860
vn 0.961516 0.227973 -0.153233
vn 0.500534 -0.613666 -0.610614
vn 0.081118 0.840297 0.535997
vn 0.652089 0.508957 0.561876
vn -0.453658 0.869594 -0.194861
vn -0.658284 0.355449 0.663533
vn 0.985595 -0.073489 0.152196
vn 0.998505 -0.007447 0.053987
vn 0.296976 -0.570269 -0.765862
vn 0.292154 -0.045503 -0.955260
vn -0.963042 -0.207465 -0.171606
vn -0.748894 0.014527 0.662496
vn -0.883694 0.006104 -0.467971
vn -0.696188 0.241523 0.675985
vn -0.854793 0.263833 -0.446852
vn 0.993683 0.107761 0.030641
vn 0.274911 0.238075 -0.931486
vn 0.414960 0.180914 0.891629
vn 0.298074 0.237312 -0.924558
vn 0.991577 0.129460 0.001892
vn -0.962772 0.226071 0.148198
vn -0.977309 0.205740 0.050377
vn -0.981165 0.193072 -0.006229
vn -0.979861 0.169083 -0.106227
vn 0.471206 0.152287 0.868740
vn -0.719138 0.149754 0.678518
vn 0.435774 -0.015412 0.899899
vn -0.734886 -0.003815 0.678152
vn -0.768914 0.130070 0.625965
vn 0.992370 0.048433 0.113132
vn 0.325968 0.138585 0.935148
vn -0.732841 0.310556 0.605365
vn 0.745354 0.070162 -0.662954
vn -0.093753 0.352580 0.931059
vn 0.755242 0.267800 0.598193
vn 0.825831 0.397015 0.400433
vn 0.990722 0.135044 0.013062
vn 0.987335 0.147069 -0.059267
vn 0.868496 0.154241 -0.471023
vn 0.772759 0.188330 -0.606067
vn 0.604724 0.355083 -0.712851
vn 0.095157 0.358501 -0.928648
vn 0.255074 0.359172 -0.897702
vn -0.233528 0.163793 -0.958434
vn -0.874081 0.369121 -0.315744
vn -0.933226 0.133061 -0.333689
vn -0.865841 0.162053 -0.473312
usemtl Deer_body.001
f 11/11/11 12/12/12 13/13/13
f 14/14/14 15/15/15 16/16/16
f 15/15/15 17/17/17 18/18/18
f 14/14/14 19/19/19 15/15/15
f 19/19/19 17/17/17 15/15/15
f 20/20/20 17/17/17 19/19/19
f 21/21/21 19/19/19 14/14/14
f 22/22/22 19/23/19 21/24/21
f 20/25/20 19/23/19 22/22/22
f 11/11/11 20/25/20 22/22/22
f 23/26/23 20/25/20 11/11/11
f 17/27/17 20/25/20 23/26/23
f 11/11/11 24/28/24 23/26/23
f 13/13/13 24/28/24 11/11/11
f 25/29/25 17/27/17 23/26/23
f 18/30/18 17/27/17 25/29/25
f 24/28/24 26/31/26 23/26/23
f 23/26/23 26/31/26 25/29/25
f 25/29/25 26/31/26 27/32/27
f 25/29/25 16/33/16 18/30/18
f 16/33/16 15/34/15 18/30/18
f 27/32/27 16/33/16 25/29/25
f 27/32/27 14/35/14 16/33/16
f 22/36/22 21/37/21 14/35/14
f 27/32/27 22/36/22 14/35/14
f 11/38/11 22/36/22 27/32/27
f 11/38/11 27/32/27 28/39/28
f 28/39/28 27/32/27 29/40/29
f 27/32/27 26/31/26 29/40/29
f 29/40/29 30/41/30 28/39/28
f 31/42/31 30/41/30 29/40/29
f 26/31/26 31/42/31 29/40/29
f 32/43/32 26/31/26 24/28/24
f 13/13/13 32/43/32 24/28/24
f 33/44/33 31/42/31 26/31/26
f 33/44/33 26/31/26 32/43/32
f 34/45/34 32/43/32 13/13/13
f 33/44/33 35/46/35 31/42/31
f 32/43/32 36/47/36 33/44/33
f 34/45/34 36/47/36 32/43/32
f 33/44/33 36/47/36 35/46/35
f 28/48/28 34/45/34 13/13/13
f 13/13/13 12/12/12 28/48/28
f 37/49/37 38/50/38 12/12/39
f 12/12/39 38/50/38 11/51/40
f 28/48/28 12/12/12 11/51/11
f 30/52/30 34/45/34 28/48/28
f 30/52/30 39/53/41 34/45/34
f 39/53/41 36/47/36 34/45/34
f 40/54/42 39/53/41 30/52/30
f 40/54/42 41/55/43 39/53/41
f 39/53/41 41/55/43 36/47/36
f 42/56/44 41/55/43 40/54/42
f 42/56/44 43/57/45 41/55/43
f 36/47/36 41/55/43 44/58/46
f 41/55/43 43/57/45 45/59/47
f 41/55/43 45/59/47 44/58/46
f 46/60/48 45/59/47 43/57/45
f 44/58/46 47/61/49 36/47/36
f 36/47/36 47/61/49 35/46/35
f 48/62/50 45/59/47 46/60/48
f 46/60/48 2/63/5 48/62/50
f 2/63/5 1/64/4 48/62/50
f 45/59/47 48/62/50 49/65/51
f 48/62/50 1/64/4 49/65/51
f 49/65/51 1/64/4 50/66/52
f 49/65/51 51/67/53 45/59/47
f 49/65/51 50/66/52 51/67/53
f 45/59/47 51/67/53 44/58/46
f 51/67/53 50/66/52 52/68/54
f 52/68/54 53/69/55 51/67/53
f 51/67/53 54/70/56 44/58/46
f 51/67/53 53/69/55 54/70/56
f 44/58/46 54/70/56 47/61/49
f 53/69/55 55/71/57 54/70/56
f 54/70/56 55/71/57 56/72/58
f 54/70/56 56/72/58 47/61/49
f 55/71/57 57/73/59 56/72/58
f 57/73/59 4/74/7 56/72/58
f 47/61/49 56/72/58 58/75/60
f 47/61/49 58/75/60 35/46/35
f 56/72/58 4/74/7 59/76/61
f 56/72/58 59/76/61 58/75/60
f 3/77/6 59/76/61 4/74/7
f 58/75/60 60/78/62 35/46/35
f 58/75/60 59/76/61 60/78/62
f 35/46/35 60/78/62 61/79/63
f 31/42/31 35/46/35 61/79/63
f 31/42/31 61/79/63 30/41/30
f 30/41/30 61/79/63 40/80/42
f 60/78/62 42/81/44 61/79/63
f 61/79/63 42/81/44 40/80/42
f 43/82/45 42/81/44 60/78/62
f 60/78/62 59/76/61 43/82/45
f 43/82/45 59/76/61 46/83/48
f 3/77/6 46/83/48 59/76/61
f 2/84/5 46/83/48 3/77/6
f 1/85/4 10/86/3 50/87/52
f 4/88/7 57/89/59 5/90/8
f 55/91/57 5/90/8 57/89/59
f 6/92/9 5/90/8 55/91/57
f 50/87/52 10/86/3 9/93/2
f 50/87/52 9/93/2 52/94/54
f 52/94/54 9/93/2 8/95/1
f 8/95/1 7/96/10 52/94/54
f 52/94/54 7/96/10 53/97/55
f 53/97/55 7/96/10 55/91/57
f 7/96/10 6/92/9 55/91/57
o Deer
v 0.276181 -1.477252 0.730626
v 0.272210 -1.469579 0.706210
v 0.287166 -1.292082 0.723979
v 0.214101 -1.572422 0.887260
v 0.281229 -1.605338 1.018239
v 0.231222 -1.570787 0.949367
v 0.351446 -1.572526 0.887792
v 0.310455 -1.564843 0.955703
v 0.284694 -1.605248 0.823279
v 0.326976 -1.574769 0.822055
v 0.225941 -1.605258 0.858501
v 0.239883 -1.543427 0.799367
v 0.326956 -1.474749 0.793658
v 0.318390 -1.294611 0.772071
v 0.294404 -1.475986 0.842031
v 0.289477 -1.291382 0.821114
v 0.233568 -1.475214 0.814163
v 0.234994 -1.293549 0.733192
v 0.229599 -1.293471 0.791683
v 0.223001 -0.946476 0.730872
v 0.214579 -0.946528 0.802332
v 0.319823 -0.946863 0.778716
v 0.282517 -0.946736 0.839000
v 0.280358 -0.946716 0.722633
v 0.292292 -0.837253 0.890246
v 0.346486 -0.822050 0.781115
v 0.281772 -1.500697 0.691560
v 0.278731 -1.502466 0.714014
v 0.301266 -0.822867 0.673543
v 0.185129 -0.821286 0.695941
v 0.292835 -0.700817 0.678124
v 0.191646 -0.696351 0.700211
v 0.171396 -0.534646 0.701288
v 0.344650 -0.579894 0.780972
v 0.280028 -0.507378 0.663878
v 0.157736 -0.378104 0.694102
v 0.315690 -0.596282 0.876099
v 0.239542 -0.324657 0.632380
v 0.108834 -0.279852 0.674831
v 0.228439 -0.216541 0.571907
v 0.347377 -0.299776 0.659450
v 0.356711 -0.150560 0.620915
v 0.383142 -0.268107 0.773760
v 0.397333 -0.085353 0.771159
v 0.353480 -0.143515 0.931143
v 0.341295 -0.300366 0.908897
v 0.288545 -0.160339 0.995870
v 0.234879 -0.328951 0.949355
v 0.207315 -0.254525 0.972111
v 0.087658 -0.231982 1.023784
v 0.244572 -0.613154 0.904389
v 0.128305 -0.395638 0.857264
v 0.092696 -0.301221 0.798480
v 0.180147 -0.641892 0.821413
v 0.166206 -0.830276 0.831457
v 0.370535 -0.052169 0.483590
v 0.185210 -0.123715 1.101904
v 0.302758 0.018783 1.088340
v 0.429231 0.042880 0.570767
v 0.422108 0.150263 0.750346
v 0.384830 0.076590 0.961546
vt 0.642761 0.808970
vt 0.684626 0.790798
vt 0.712215 0.798959
vt 0.753635 0.832847
vt 0.752456 0.869498
vt 0.734616 0.908295
vt 0.699986 0.921007
vt 0.647653 0.933361
vt 0.605565 0.893027
vt 0.593819 0.855147
vt 0.633328 0.571760
vt 0.634784 0.587872
vt 0.648944 0.634272
vt 0.058592 0.571280
vt 0.071296 0.562976
vt 0.062016 0.559552
vt 0.084480 0.571280
vt 0.078608 0.559552
vt 0.071296 0.588848
vt 0.083008 0.582512
vt 0.061040 0.582512
vt 0.630384 0.542960
vt 0.648464 0.531232
vt 0.632336 0.518544
vt 0.659696 0.541008
vt 0.665552 0.573232
vt 0.679216 0.533184
vt 0.664576 0.630848
vt 0.688016 0.570304
vt 0.699728 0.524896
vt 0.683616 0.630848
vt 0.719744 0.580064
vt 0.724624 0.533184
vt 0.715360 0.508768
vt 0.731952 0.549792
vt 0.738304 0.569808
vt 0.744160 0.552240
vt 0.732928 0.592272
vt 0.726592 0.637200
vt 0.713408 0.634752
vt 0.735376 0.731920
vt 0.717312 0.736816
vt 0.663104 0.737792
vt 0.686544 0.739248
vt 0.643088 0.735840
vt 0.691424 0.778800
vt 0.660672 0.775872
vt 0.631360 0.636704
vt 0.635280 0.579584
vt 0.634304 0.575664
vt 0.617696 0.588848
vt 0.626976 0.732896
vt 0.631360 0.771968
vt 0.604016 0.764640
vt 0.622576 0.806144
vt 0.592784 0.798816
vt 0.574720 0.842288
vt 0.652368 0.849120
vt 0.605488 0.863760
vt 0.549824 0.880368
vt 0.685072 0.847648
vt 0.569840 0.911136
vt 0.528832 0.905264
vt 0.553232 0.937008
vt 0.601584 0.930176
vt 0.588880 0.967776
vt 0.640160 0.941408
vt 0.632336 0.980960
vt 0.689968 0.994144
vt 0.688992 0.940912
vt 0.715360 0.970704
vt 0.722672 0.931152
vt 0.729520 0.958976
vt 0.763696 0.949216
vt 0.706080 0.841792
vt 0.769552 0.904288
vt 0.792016 0.920400
vt 0.739776 0.834960
vt 0.723168 0.774896
vt 0.751984 0.764160
vt 0.759792 0.796384
vt 0.782736 0.840320
vt 0.806176 0.879392
vt 0.826192 0.904784
vt 0.628928 0.089824
vt 0.597184 0.165008
vt 0.648464 0.141568
vt 0.795440 0.096656
vt 0.770048 0.118144
vt 0.802272 0.149872
vt 0.759296 0.150368
vt 0.782736 0.202608
vt 0.624528 0.197248
vt 0.690944 0.152320
vt 0.675312 0.230928
vt 0.738800 0.216288
vt 0.740752 0.158672
vn -0.414838 0.023652 -0.909574
vn -0.875423 0.041993 -0.481491
vn -0.988342 0.042573 -0.145970
vn -0.796258 -0.094607 0.597491
vn -0.441511 0.075167 0.894070
vn 0.050356 0.591357 0.804804
vn 0.462966 0.818751 0.339457
vn 0.385357 0.919980 -0.071322
vn 0.520066 0.722770 -0.455061
vn 0.135807 0.219092 -0.966186
vn -0.039625 -0.403870 -0.913958
vn -0.039084 -0.718573 -0.694352
vn 0.426221 0.010102 -0.904538
vn -0.943205 -0.313547 0.109653
vn 0.004791 -0.310312 0.950591
vn -0.784173 0.179968 0.593860
vn 0.961516 -0.227973 0.153233
vn 0.500534 0.613666 0.610614
vn 0.081118 -0.840297 -0.535997
vn 0.652089 -0.508927 -0.561876
vn -0.453658 -0.869594 0.194861
vn -0.658284 -0.355449 -0.663533
vn 0.985595 0.073489 -0.152196
vn 0.998505 0.007447 -0.053987
vn 0.296976 0.570269 0.765862
vn 0.292154 0.045503 0.955260
vn -0.963042 0.207465 0.171606
vn -0.748894 -0.014527 -0.662496
vn -0.883694 -0.006104 0.467971
vn -0.696188 -0.241523 -0.675985
vn -0.854793 -0.263833 0.446852
vn 0.993683 -0.107761 -0.030641
vn 0.274911 -0.238075 0.931486
vn 0.414960 -0.180914 -0.891629
vn 0.298074 -0.237312 0.924558
vn 0.991577 -0.129460 -0.001892
vn -0.962773 -0.226064 -0.148201
vn -0.977310 -0.205735 -0.050382
vn -0.981166 -0.193067 0.006222
vn -0.979862 -0.169080 0.106219
vn 0.471206 -0.152287 -0.868740
vn -0.719138 -0.149754 -0.678518
vn 0.435774 0.015412 -0.899899
vn -0.734886 0.003815 -0.678152
vn -0.768914 -0.130070 -0.625965
vn 0.992370 -0.048433 -0.113132
vn 0.325968 -0.138585 -0.935148
vn -0.732841 -0.310556 -0.605365
vn 0.745354 -0.070162 0.662954
vn -0.093753 -0.352580 -0.931059
vn 0.755242 -0.267800 -0.598193
vn 0.825831 -0.397015 -0.400433
vn 0.990722 -0.135044 -0.013062
vn 0.987335 -0.147069 0.059267
vn 0.868496 -0.154241 0.471023
vn 0.772759 -0.188360 0.606067
vn 0.604724 -0.355083 0.712851
vn 0.095157 -0.358501 0.928648
vn 0.255074 -0.359172 0.897702
vn -0.233528 -0.163793 0.958434
vn -0.874081 -0.369121 0.315744
vn -0.933226 -0.133061 0.333689
vn -0.865841 -0.162053 0.473312
usemtl Deer_body
f 62/108/74 63/109/75 64/110/76
f 65/111/77 66/112/78 67/113/79
f 66/112/78 68/114/80 69/115/81
f 65/111/77 70/116/82 66/112/78
f 70/116/82 68/114/80 66/112/78
f 71/117/83 68/114/80 70/116/82
f 72/118/84 70/116/82 65/111/77
f 73/119/85 70/120/82 72/121/84
f 71/122/83 70/120/82 73/119/85
f 62/108/74 71/122/83 73/119/85
f 74/123/86 71/122/83 62/108/74
f 68/124/80 71/122/83 74/123/86
f 62/108/74 75/125/87 74/123/86
f 64/110/76 75/125/87 62/108/74
f 76/126/88 68/124/80 74/123/86
f 69/127/81 68/124/80 76/126/88
f 75/125/87 77/128/89 74/123/86
f 74/123/86 77/128/89 76/126/88
f 76/126/88 77/128/89 78/129/90
f 76/126/88 67/130/79 69/127/81
f 67/130/79 66/131/78 69/127/81
f 78/129/90 67/130/79 76/126/88
f 78/129/90 65/132/77 67/130/79
f 73/133/85 72/134/84 65/132/77
f 78/129/90 73/133/85 65/132/77
f 62/135/74 73/133/85 78/129/90
f 62/135/74 78/129/90 79/136/91
f 79/136/91 78/129/90 80/137/92
f 78/129/90 77/128/89 80/137/92
f 80/137/92 81/138/93 79/136/91
f 82/139/94 81/138/93 80/137/92
f 77/128/89 82/139/94 80/137/92
f 83/140/95 77/128/89 75/125/87
f 64/110/76 83/140/95 75/125/87
f 84/141/96 82/139/94 77/128/89
f 84/141/96 77/128/89 83/140/95
f 85/142/97 83/140/95 64/110/76
f 84/141/96 86/143/98 82/139/94
f 83/140/95 87/144/99 84/141/96
f 85/142/97 87/144/99 83/140/95
f 84/141/96 87/144/99 86/143/98
f 79/145/91 85/142/97 64/110/76
f 64/110/76 63/109/75 79/145/91
f 88/146/100 89/147/101 63/109/102
f 63/109/102 89/147/101 62/148/103
f 79/145/91 63/109/75 62/148/74
f 81/149/93 85/142/97 79/145/91
f 81/149/93 90/150/104 85/142/97
f 90/150/104 87/144/99 85/142/97
f 91/151/105 90/150/104 81/149/93
f 91/151/105 92/152/106 90/150/104
f 90/150/104 92/152/106 87/144/99
f 93/153/107 92/152/106 91/151/105
f 93/153/107 94/154/108 92/152/106
f 87/144/99 92/152/106 95/155/109
f 92/152/106 94/154/108 96/156/110
f 92/152/106 96/156/110 95/155/109
f 97/157/111 96/156/110 94/154/108
f 95/155/109 98/158/112 87/144/99
f 87/144/99 98/158/112 86/143/98
f 99/159/113 96/156/110 97/157/111
f 97/157/111 100/160/65 99/159/113
f 99/159/113 100/160/65 101/161/64
f 96/156/110 99/159/113 102/162/114
f 99/159/113 101/161/64 102/162/114
f 102/162/114 101/161/64 103/163/115
f 102/162/114 104/164/116 96/156/110
f 102/162/114 103/163/115 104/164/116
f 96/156/110 104/164/116 95/155/109
f 104/164/116 103/163/115 105/165/117
f 105/165/117 106/166/118 104/164/116
f 104/164/116 107/167/119 95/155/109
f 104/164/116 106/166/118 107/167/119
f 95/155/109 107/167/119 98/158/112
f 106/166/118 108/168/120 107/167/119
f 107/167/119 108/168/120 109/169/121
f 107/167/119 109/169/121 98/158/112
f 108/168/120 110/170/122 109/169/121
f 110/170/122 111/171/67 109/169/121
f 98/158/112 109/169/121 112/172/123
f 98/158/112 112/172/123 86/143/98
f 109/169/121 111/171/67 113/173/124
f 109/169/121 113/173/124 112/172/123
f 114/174/66 113/173/124 111/171/67
f 112/172/123 115/175/125 86/143/98
f 112/172/123 113/173/124 115/175/125
f 86/143/98 115/175/125 116/176/126
f 82/139/94 86/143/98 116/176/126
f 82/139/94 116/176/126 81/138/93
f 81/138/93 116/176/126 91/177/105
f 115/175/125 93/178/107 116/176/126
f 116/176/126 93/178/107 91/177/105
f 94/179/108 93/178/107 115/175/125
f 115/175/125 113/173/124 94/179/108
f 94/179/108 113/173/124 97/180/111
f 114/174/66 97/180/111 113/173/124
f 100/181/65 97/180/111 114/174/66
f 101/182/64 117/183/73 103/184/115
f 111/185/67 110/186/122 118/187/68
f 108/188/120 118/187/68 110/186/122
f 119/189/69 118/187/68 108/188/120
f 103/184/115 117/183/73 120/190/72
f 103/184/115 120/190/72 105/191/117
f 105/191/117 120/190/72 121/192/71
f 121/192/71 122/193/70 105/191/117
f 105/191/117 122/193/70 106/194/118
f 106/194/118 122/193/70 108/188/120
f 122/193/70 119/189/69 108/188/120
