# Blender v2.69 (sub 3) OBJ File: 'deerBackLegLeft.blend'
# www.blender.org
mtllib deerBackLegLeft.mtl
o Deer
v 0.029545 -0.308310 0.469536
v 0.005447 -0.386625 0.391148
v -0.149724 -0.322553 0.331108
v -0.132421 -0.344439 0.275703
v -0.232936 -0.274231 0.132916
v -0.004330 -0.593787 0.206408
v -0.187018 -0.299464 0.111804
v -0.161461 -0.322542 -0.057493
v -0.130492 -0.490569 0.122671
v -0.025850 -0.762240 0.034626
v -0.148431 -0.353836 -0.015742
v -0.113736 -0.732439 -0.050880
v -0.032136 -0.928694 -0.089646
v -0.112294 -0.500490 -0.050959
v -0.000375 -0.423649 -0.100652
v 0.012126 -0.315126 -0.135807
v -0.089768 -0.689104 -0.166040
v 0.131032 -0.333319 -0.019220
v 0.145439 -0.213920 -0.056405
v -0.014644 -0.531221 -0.129808
v 0.075565 -0.500490 -0.056865
v 0.189935 -0.296961 0.108092
v 0.186735 -0.142478 0.091495
v 0.193581 -0.179240 0.277091
v 0.131332 -0.572001 0.086190
v 0.153093 -0.344144 0.273077
v 0.062667 -0.747154 -0.051320
v 0.033546 -0.686515 -0.180476
v 0.033286 -0.925279 -0.151292
v -0.031714 -0.680063 -0.215857
v 0.011995 -0.893666 -0.264850
v 0.027854 -1.241314 -0.114732
v -0.027758 -1.240425 -0.068383
v -0.004582 -1.574833 -0.001707
v 0.015778 -1.243122 -0.175122
v -0.040897 -0.888962 -0.295025
v 0.057464 -1.587870 -0.050147
v -0.096912 -0.898757 -0.251882
v -0.028508 -1.243486 -0.198968
v -0.116388 -0.937000 -0.146145
v -0.070446 -1.243122 -0.175700
v -0.077380 -1.241314 -0.114476
v -0.051727 -1.602866 -0.117567
v -0.063101 -1.587842 -0.050154
v 0.002132 -1.662765 0.041700
v -0.004582 -1.607821 -0.137745
v -0.068065 -1.696452 0.013819
v -0.024725 -1.754808 -0.054431
v 0.045248 -1.602866 -0.117524
v 0.009062 -1.758875 -0.062948
v -0.023023 -1.776289 -0.019955
v -0.056558 -1.754665 0.065856
v 0.005905 -1.744975 0.141422
v -0.065477 -1.832384 0.176864
v 0.008909 -1.832384 0.235032
v -0.076208 -1.832387 0.103393
v -0.048311 -1.832385 0.043973
v 0.013195 -1.832384 0.030304
v 0.013011 -1.773842 -0.009866
v 0.049600 -1.776289 -0.019948
v 0.073248 -1.832386 0.044069
v 0.046312 -1.754808 -0.054426
v 0.074326 -1.739927 0.067574
v 0.095281 -1.832386 0.103101
v 0.072161 -1.679885 -0.001802
v 0.080261 -1.832384 0.176934
v 0.211726 0.014209 0.075065
v 0.199951 -0.080282 0.352228
v 0.138442 -0.108883 -0.130528
v 0.014994 -0.218810 -0.217384
v -0.138204 -0.237396 -0.203298
vt 0.206503 0.934209
vt 0.133803 0.898224
vt 0.127620 0.823279
vt 0.169747 0.788422
vt 0.221980 0.783088
vt 0.264805 0.806441
vt 0.301559 0.827691
vt 0.295464 0.865996
vt 0.268235 0.905739
vt 0.011232 0.976080
vt 0.015632 0.945312
vt 0.051264 0.979008
vt 0.063968 0.966304
vt 0.114752 0.983888
vt 0.062496 0.885248
vt 0.119632 0.977056
vt 0.165536 0.966800
vt 0.102048 0.919920
vt 0.104496 0.835936
vt 0.157232 0.957024
vt 0.141600 0.844240
vt 0.132336 0.776848
vt 0.164064 0.910160
vt 0.214368 0.932128
vt 0.219248 0.960448
vt 0.183600 0.847648
vt 0.275888 0.953120
vt 0.263184 0.985344
vt 0.209968 0.896000
vt 0.258800 0.905264
vt 0.325200 0.954096
vt 0.321792 0.989264
vt 0.382832 0.980960
vt 0.328624 0.907712
vt 0.372576 0.941888
vt 0.430672 0.950192
vt 0.414560 0.920400
vt 0.354496 0.866208
vt 0.305184 0.821280
vt 0.273936 0.837888
vt 0.273440 0.776368
vt 0.227552 0.846672
vt 0.246096 0.784176
vt 0.206064 0.844720
vt 0.220704 0.790528
vt 0.243664 0.688960
vt 0.265152 0.687984
vt 0.274416 0.586416
vt 0.223632 0.690416
vt 0.204592 0.790528
vt 0.250496 0.584944
vt 0.187024 0.788560
vt 0.207040 0.690912
vt 0.164064 0.786128
vt 0.192384 0.690416
vt 0.172368 0.687488
vt 0.150880 0.683584
vt 0.198736 0.585440
vt 0.180176 0.581536
vt 0.154304 0.578592
vt 0.154304 0.546864
vt 0.213872 0.586896
vt 0.178720 0.547344
vt 0.207040 0.543440
vt 0.228528 0.585920
vt 0.217296 0.544416
vt 0.205088 0.531232
vt 0.176272 0.519024
vt 0.146496 0.509744
vt 0.162112 0.478992
vt 0.136240 0.475568
vt 0.181648 0.491200
vt 0.197264 0.502912
vt 0.219248 0.503888
vt 0.218272 0.529776
vt 0.232432 0.532704
vt 0.241216 0.503888
vt 0.228528 0.543936
vt 0.259776 0.522448
vt 0.256848 0.494608
vt 0.255376 0.550272
vt 0.277840 0.554672
vt 0.292000 0.518544
vt 0.279312 0.485344
vt 0.304208 0.484848
vt 0.366224 0.150848
vt 0.329600 0.216288
vt 0.307136 0.183568
vt 0.260752 0.187472
vt 0.253424 0.237776
vt 0.202160 0.207008
vt 0.224128 0.180640
vt 0.174320 0.174288
vt 0.195808 0.151824
vt 0.178720 0.105936
vt 0.147472 0.142560
vt 0.069344 0.648432
vt 0.085456 0.644032
vt 0.081056 0.655264
vt 0.069824 0.618160
vt 0.083008 0.629872
vt 0.052736 0.643056
vt 0.058112 0.654768
vt 0.055184 0.628896
vn -0.546953 -0.836848 0.021607
vn -0.545732 -0.732627 -0.406690
vn 0.018769 -0.054811 -0.998291
vn 0.942839 0.050325 -0.329386
vn 0.995361 0.032411 -0.090487
vn 0.914853 0.161504 0.370037
vn 0.788507 -0.056459 0.612384
vn 0.028443 -0.140751 0.989624
vn -0.506149 -0.740471 0.442122
vn 0.006470 0.716544 -0.697470
vn 0.694174 0.664510 -0.276589
vn 0.060121 0.690695 -0.720603
vn 0.724754 0.688864 -0.012421
vn 0.907559 0.345744 -0.238197
vn 0.073611 0.664968 -0.743217
vn 0.854549 0.426954 0.295633
vn 0.951689 0.203619 -0.229713
vn -0.059297 0.281259 -0.957793
vn 0.854915 -0.085452 0.511612
vn -0.070681 0.050539 0.996216
vn -0.278726 0.528336 0.801935
vn 0.840449 -0.242225 0.484725
vn -0.808130 0.211310 0.549760
vn -0.867794 0.228431 0.441237
vn 0.010346 -0.405896 0.913846
vn -0.780175 -0.011597 0.625446
vn -0.983856 0.141209 0.109806
vn -0.986969 0.084017 0.137181
vn -0.962127 0.179449 -0.205145
vn -0.899289 0.416669 -0.132847
vn -0.835414 0.363018 -0.412610
vn -0.929380 0.334666 -0.155644
vn -0.784020 -0.186956 0.591876
vn -0.972167 0.114200 -0.204535
vn 0.102786 -0.428297 0.897732
vn -0.768181 -0.009461 0.640126
vn -0.943663 -0.077456 -0.321696
vn 0.039827 -0.135685 -0.989929
vn 0.027284 -0.335398 -0.941649
vn -0.804041 0.089053 0.587817
vn 0.075442 -0.062777 0.995148
vn -0.942259 -0.206977 -0.263161
vn 0.828486 -0.018891 0.559648
vn 0.011200 0.208625 0.977905
vn 0.950682 0.099399 -0.293741
vn 0.822657 0.167150 0.543352
vn 0.936796 0.019898 -0.349284
vn 0.765191 0.227332 0.602283
vn 0.950896 -0.088229 -0.296579
vn 0.022553 -0.616962 -0.786645
vn 0.004303 0.296640 0.954955
vn 0.962310 -0.083041 -0.258950
vn 0.592853 0.575152 0.563616
vn -0.755394 0.141118 0.639882
vn -0.034059 0.719443 0.693655
vn 0.500351 0.687002 0.526902
vn 0.949675 -0.285592 -0.128513
vn 0.050691 -0.778497 -0.625538
vn 0.756706 0.378002 -0.533341
vn -0.013794 0.281289 -0.959502
vn 0.824213 0.563677 0.053835
vn 0.573809 0.707755 0.412030
vn -0.001038 0.896207 0.443617
vn -0.027314 0.768181 0.639607
vn -0.547380 0.583422 0.599963
vn -0.614551 0.687094 0.387463
vn -0.602252 0.558946 0.569933
vn -0.891507 -0.405164 -0.202490
vn -0.823939 0.566485 0.013001
vn -0.958098 -0.214240 -0.190008
vn -0.732627 0.390027 -0.557756
usemtl None
s 1
f 67/1/1 68/2/2 1/3/3 3/4/4 5/5/5 8/6/6 71/7/7 70/8/8 69/9/9
usemtl Deer_body
f 1/10/3 2/11/10 3/12/4
f 3/12/4 2/11/10 4/13/11
f 4/13/11 5/14/5 3/12/4
f 2/11/10 6/15/12 4/13/11
f 7/16/13 5/14/5 4/13/11
f 5/14/5 7/16/13 8/17/6
f 4/13/11 6/15/12 9/18/14
f 9/18/14 7/16/13 4/13/11
f 6/15/12 10/19/15 9/18/14
f 8/17/6 7/16/13 11/20/16
f 7/16/13 9/18/14 11/20/16
f 9/18/14 10/19/15 12/21/17
f 13/22/18 12/21/17 10/19/15
f 11/20/16 9/18/14 14/23/19
f 9/18/14 12/21/17 14/23/19
f 11/20/16 15/24/20 8/17/6
f 14/23/19 15/24/20 11/20/16
f 8/17/6 15/24/20 16/25/21
f 14/23/19 12/21/17 17/26/22
f 15/24/20 18/27/23 16/25/21
f 16/25/21 18/27/23 19/28/24
f 20/29/25 15/24/20 14/23/19
f 17/26/22 20/29/25 14/23/19
f 15/24/20 21/30/26 18/27/23
f 20/29/25 21/30/26 15/24/20
f 18/27/23 22/31/27 19/28/24
f 19/28/24 22/31/27 23/32/28
f 22/31/27 24/33/29 23/32/28
f 18/27/23 25/34/30 22/31/27
f 21/30/26 25/34/30 18/27/23
f 26/35/31 24/33/29 22/31/27
f 22/31/27 25/34/30 26/35/31
f 24/33/29 26/35/31 1/36/3
f 1/36/3 26/35/31 2/37/10
f 26/35/31 6/38/12 2/37/10
f 25/34/30 6/38/12 26/35/31
f 25/34/30 10/39/15 6/38/12
f 27/40/32 10/39/15 25/34/30
f 21/30/26 27/40/32 25/34/30
f 27/40/32 13/41/18 10/39/15
f 28/42/33 27/40/32 21/30/26
f 20/29/25 28/42/33 21/30/26
f 29/43/34 13/41/18 27/40/32
f 28/42/33 29/43/34 27/40/32
f 30/44/35 28/42/33 20/29/25
f 30/44/35 20/29/25 17/26/22
f 31/45/36 29/43/34 28/42/33
f 30/44/35 31/45/36 28/42/33
f 32/46/37 13/41/18 29/43/34
f 33/47/38 13/41/18 32/46/37
f 32/46/37 34/48/39 33/47/38
f 35/49/40 29/43/34 31/45/36
f 32/46/37 29/43/34 35/49/40
f 36/50/41 31/45/36 30/44/35
f 37/51/42 34/48/39 32/46/37
f 30/44/35 38/52/43 36/50/41
f 17/26/22 38/52/43 30/44/35
f 39/53/44 31/45/36 36/50/41
f 38/52/43 39/53/44 36/50/41
f 35/49/40 31/45/36 39/53/44
f 17/26/22 40/54/45 38/52/43
f 12/21/17 40/54/45 17/26/22
f 40/54/45 12/21/17 13/22/18
f 40/54/45 41/55/46 38/52/43
f 41/55/46 39/53/44 38/52/43
f 13/22/18 42/56/47 40/54/45
f 42/56/47 41/55/46 40/54/45
f 33/57/38 42/56/47 13/22/18
f 41/55/46 43/58/48 39/53/44
f 42/56/47 43/58/48 41/55/46
f 33/57/38 44/59/49 42/56/47
f 44/59/49 43/58/48 42/56/47
f 34/60/39 44/59/49 33/57/38
f 34/60/39 45/61/50 44/59/49
f 39/53/44 43/58/48 46/62/51
f 39/53/44 46/62/51 35/49/40
f 47/63/52 43/58/48 44/59/49
f 44/59/49 45/61/50 47/63/52
f 48/64/53 46/62/51 43/58/48
f 48/64/53 43/58/48 47/63/52
f 35/49/40 46/62/51 49/65/54
f 35/49/40 49/65/54 32/46/37
f 32/46/37 49/65/54 37/51/42
f 50/66/55 46/62/51 48/64/53
f 50/66/55 49/65/54 46/62/51
f 48/64/53 47/63/52 51/67/56
f 51/67/56 50/66/55 48/64/53
f 45/61/50 52/68/57 47/63/52
f 51/67/56 47/63/52 52/68/57
f 53/69/58 52/68/57 45/61/50
f 54/70/59 53/69/58 55/71/60
f 52/68/57 53/69/58 54/70/59
f 52/68/57 54/70/59 56/72/61
f 57/73/62 52/68/57 56/72/61
f 51/67/56 52/68/57 57/73/62
f 58/74/63 51/67/56 57/73/62
f 59/75/64 51/67/56 58/74/63
f 59/75/64 50/66/55 51/67/56
f 59/75/64 58/74/63 60/76/65
f 60/76/65 58/74/63 61/77/66
f 59/75/64 62/78/67 50/66/55
f 60/76/65 62/78/67 59/75/64
f 62/78/67 49/65/54 50/66/55
f 60/76/65 61/77/66 63/79/68
f 63/79/68 61/77/66 64/80/69
f 60/76/65 65/81/70 62/78/67
f 62/78/67 65/81/70 49/65/54
f 63/79/68 65/81/70 60/76/65
f 49/65/54 65/81/70 37/51/42
f 65/81/70 34/48/39 37/51/42
f 45/82/50 34/48/39 65/81/70
f 63/79/68 45/82/50 65/81/70
f 53/83/58 45/82/50 63/79/68
f 63/79/68 64/80/69 66/84/71
f 63/79/68 66/84/71 53/83/58
f 53/83/58 66/84/71 55/85/60
f 1/86/3 68/87/2 24/88/29
f 24/88/29 68/87/2 23/89/28
f 23/89/28 68/87/2 67/90/1
f 69/91/9 23/89/28 67/90/1
f 19/92/24 23/89/28 69/91/9
f 70/93/8 19/92/24 69/91/9
f 16/94/21 19/92/24 70/93/8
f 8/95/6 16/94/21 71/96/7
f 71/96/7 16/94/21 70/93/8
f 58/97/63 64/98/69 61/99/66
f 64/98/69 55/100/60 66/101/71
f 58/97/63 55/100/60 64/98/69
f 58/97/63 56/102/61 55/100/60
f 57/103/62 56/102/61 58/97/63
f 55/100/60 56/102/61 54/104/59
